ffmpeg.exe : ffmpeg version 8.0-essentials_build-www.gyan.dev Copyright (c) 2000-2025 the 
FFmpeg developers
At line:1 char:1
+ & "c:\xampp\htdocs\thesis2\ffmpeg-8.0-essentials_build\bin\ffmpeg.exe ...
+ ~~~~~~~~~~~~~~~~~~~~~~~~~~~~~~~~~~~~~~~~~~~~~~~~~~~~~~~~~~~~~~~~~~~~~
    + CategoryInfo          : NotSpecified: (ffmpeg version ...mpeg developers:String) [], R 
   emoteException
    + FullyQualifiedErrorId : NativeCommandError
 
  built with gcc 15.2.0 (Rev8, Built by MSYS2 project)
  configuration: --enable-gpl --enable-version3 --enable-static --disable-w32threads 
--disable-autodetect --enable-fontconfig --enable-iconv --enable-gnutls --enable-libxml2 
--enable-gmp --enable-bzlib --enable-lzma --enable-zlib --enable-libsrt --enable-libssh 
--enable-libzmq --enable-avisynth --enable-sdl2 --enable-libwebp --enable-libx264 
--enable-libx265 --enable-libxvid --enable-libaom --enable-libopenjpeg --enable-libvpx 
--enable-mediafoundation --enable-libass --enable-libfreetype --enable-libfribidi 
--enable-libharfbuzz --enable-libvidstab --enable-libvmaf --enable-libzimg --enable-amf 
--enable-cuda-llvm --enable-cuvid --enable-dxva2 --enable-d3d11va --enable-d3d12va 
--enable-ffnvcodec --enable-libvpl --enable-nvdec --enable-nvenc --enable-vaapi 
--enable-openal --enable-libgme --enable-libopenmpt --enable-libopencore-amrwb 
--enable-libmp3lame --enable-libtheora --enable-libvo-amrwbenc --enable-libgsm 
--enable-libopencore-amrnb --enable-libopus --enable-libspeex --enable-libvorbis 
--enable-librubberband
  libavutil      60.  8.100 / 60.  8.100
  libavcodec     62. 11.100 / 62. 11.100
  libavformat    62.  3.100 / 62.  3.100
  libavdevice    62.  1.100 / 62.  1.100
  libavfilter    11.  4.100 / 11.  4.100
  libswscale      9.  1.100 /  9.  1.100
  libswresample   6.  1.100 /  6.  1.100
Input #0, rtsp, from 'rtsp://admin01:admin0101@192.168.1.13:554/stream1':
  Metadata:
    title           : Session streamed by "TP-LINK RTSP Server"
  Duration: N/A, start: 0.000000, bitrate: N/A
  Stream #0:0: Video: h264 (High), yuv420p(progressive), 1920x1080, 15 fps, 24.58 tbr, 90k 
tbn, start 0.076000
  Stream #0:1: Audio: pcm_alaw, 8000 Hz, mono, s16, 64 kb/s
Stream mapping:
  Stream #0:0 -> #0:0 (copy)
Output #0, mp4, to 'probe_video_only.mp4':
  Metadata:
    title           : Session streamed by "TP-LINK RTSP Server"
    encoder         : Lavf62.3.100
  Stream #0:0: Video: h264 (High) (avc1 / 0x31637661), yuv420p(progressive), 1920x1080, 
q=2-31, 15 fps, 24.58 tbr, 90k tbn
Press [q] to stop, [?] for help
[mp4 @ 000002511684d3c0] Timestamps are unset in a packet for stream 0. This is deprecated 
and will stop working in the future. Fix your code to set the timestamps properly
[vost#0:0/copy @ 0000025116a7e040] Non-monotonic DTS; previous: 207262, current: 178580; 
changing to 207263. This may result in incorrect timestamps in the output file.
[vost#0:0/copy @ 0000025116a7e040] Non-monotonic DTS; previous: 207263, current: 182180; 
changing to 207264. This may result in incorrect timestamps in the output file.
[vost#0:0/copy @ 0000025116a7e040] Non-monotonic DTS; previous: 207264, current: 189380; 
changing to 207265. This may result in incorrect timestamps in the output file.
[vost#0:0/copy @ 0000025116a7e040] Non-monotonic DTS; previous: 207265, current: 196400; 
changing to 207266. This may result in incorrect timestamps in the output file.
[vost#0:0/copy @ 0000025116a7e040] Non-monotonic DTS; previous: 207266, current: 200180; 
changing to 207267. This may result in incorrect timestamps in the output file.
frame=   36 fps=0.0 q=-1.0 size=     256KiB time=00:00:03.05 bitrate= 685.7kbits/s speed=   
6x elapsed=0:00:00.50    
[vost#0:0/copy @ 0000025116a7e040] Non-monotonic DTS; previous: 301702, current: 266791; 
changing to 301703. This may result in incorrect timestamps in the output file.
[vost#0:0/copy @ 0000025116a7e040] Non-monotonic DTS; previous: 301703, current: 273991; 
changing to 301704. This may result in incorrect timestamps in the output file.
[vost#0:0/copy @ 0000025116a7e040] Non-monotonic DTS; previous: 301704, current: 281011; 
changing to 301705. This may result in incorrect timestamps in the output file.
frame=   44 fps= 43 q=-1.0 size=     512KiB time=00:00:03.18 bitrate=1315.4kbits/s 
speed=3.09x elapsed=0:00:01.03    
[vost#0:0/copy @ 0000025116a7e040] Non-monotonic DTS; previous: 301705, current: 284701; 
changing to 301706. This may result in incorrect timestamps in the output file.
[vost#0:0/copy @ 0000025116a7e040] Non-monotonic DTS; previous: 301706, current: 291991; 
changing to 301707. This may result in incorrect timestamps in the output file.
[vost#0:0/copy @ 0000025116a7e040] Non-monotonic DTS; previous: 301707, current: 299101; 
changing to 301708. This may result in incorrect timestamps in the output file.
frame=   51 fps= 33 q=-1.0 size=     512KiB time=00:00:03.99 bitrate=1048.9kbits/s speed= 
2.6x elapsed=0:00:01.53    
[vost#0:0/copy @ 0000025116a7e040] Non-monotonic DTS; previous: 390004, current: 361053; 
changing to 390005. This may result in incorrect timestamps in the output file.
[vost#0:0/copy @ 0000025116a7e040] Non-monotonic DTS; previous: 390005, current: 368163; 
changing to 390006. This may result in incorrect timestamps in the output file.
frame=   59 fps= 29 q=-1.0 size=     512KiB time=00:00:04.15 bitrate=1009.0kbits/s 
speed=2.02x elapsed=0:00:02.05    
[vost#0:0/copy @ 0000025116a7e040] Non-monotonic DTS; previous: 390006, current: 371763; 
changing to 390007. This may result in incorrect timestamps in the output file.
[vost#0:0/copy @ 0000025116a7e040] Non-monotonic DTS; previous: 390007, current: 379323; 
changing to 390008. This may result in incorrect timestamps in the output file.
[vost#0:0/copy @ 0000025116a7e040] Non-monotonic DTS; previous: 390008, current: 386253; 
changing to 390009. This may result in incorrect timestamps in the output file.
[vost#0:0/copy @ 0000025116a7e040] Non-monotonic DTS; previous: 390009, current: 389853; 
changing to 390010. This may result in incorrect timestamps in the output file.
frame=   68 fps= 26 q=-1.0 size=     768KiB time=00:00:05.01 bitrate=1254.0kbits/s 
speed=1.94x elapsed=0:00:02.58    
[vost#0:0/copy @ 0000025116a7e040] Non-monotonic DTS; previous: 481583, current: 453021; 
changing to 481584. This may result in incorrect timestamps in the output file.
[vost#0:0/copy @ 0000025116a7e040] Non-monotonic DTS; previous: 481584, current: 456351; 
changing to 481585. This may result in incorrect timestamps in the output file.
frame=   75 fps= 24 q=-1.0 size=     768KiB time=00:00:05.13 bitrate=1224.8kbits/s 
speed=1.66x elapsed=0:00:03.09    
[vost#0:0/copy @ 0000025116a7e040] Non-monotonic DTS; previous: 481585, current: 463641; 
changing to 481586. This may result in incorrect timestamps in the output file.
[vost#0:0/copy @ 0000025116a7e040] Non-monotonic DTS; previous: 481586, current: 470841; 
changing to 481587. This may result in incorrect timestamps in the output file.
[vost#0:0/copy @ 0000025116a7e040] Non-monotonic DTS; previous: 481587, current: 474441; 
changing to 481588. This may result in incorrect timestamps in the output file.
frame=   83 fps= 23 q=-1.0 size=    1024KiB time=00:00:06.06 bitrate=1382.7kbits/s 
speed=1.68x elapsed=0:00:03.61    
[vost#0:0/copy @ 0000025116a7e040] Non-monotonic DTS; previous: 575864, current: 541338; 
changing to 575865. This may result in incorrect timestamps in the output file.
frame=   90 fps= 22 q=-1.0 size=    1024KiB time=00:00:06.08 bitrate=1379.4kbits/s 
speed=1.47x elapsed=0:00:04.13    
[vost#0:0/copy @ 0000025116a7e040] Non-monotonic DTS; previous: 575865, current: 548448; 
changing to 575866. This may result in incorrect timestamps in the output file.
[vost#0:0/copy @ 0000025116a7e040] Non-monotonic DTS; previous: 575866, current: 555378; 
changing to 575867. This may result in incorrect timestamps in the output file.
[vost#0:0/copy @ 0000025116a7e040] Non-monotonic DTS; previous: 575867, current: 558978; 
changing to 575868. This may result in incorrect timestamps in the output file.
[vost#0:0/copy @ 0000025116a7e040] Non-monotonic DTS; previous: 575868, current: 566178; 
changing to 575869. This may result in incorrect timestamps in the output file.
[vost#0:0/copy @ 0000025116a7e040] Non-monotonic DTS; previous: 575869, current: 573378; 
changing to 575870. This may result in incorrect timestamps in the output file.
frame=   98 fps= 21 q=-1.0 size=    1024KiB time=00:00:07.00 bitrate=1197.6kbits/s speed= 
1.5x elapsed=0:00:04.65    
[vost#0:0/copy @ 0000025116a7e040] Non-monotonic DTS; previous: 664056, current: 635649; 
changing to 664057. This may result in incorrect timestamps in the output file.
frame=  106 fps= 21 q=-1.0 size=    1280KiB time=00:00:07.12 bitrate=1470.8kbits/s 
speed=1.38x elapsed=0:00:05.16    
[vost#0:0/copy @ 0000025116a7e040] Non-monotonic DTS; previous: 664057, current: 642489; 
changing to 664058. This may result in incorrect timestamps in the output file.
[vost#0:0/copy @ 0000025116a7e040] Non-monotonic DTS; previous: 664058, current: 646089; 
changing to 664059. This may result in incorrect timestamps in the output file.
[vost#0:0/copy @ 0000025116a7e040] Non-monotonic DTS; previous: 664059, current: 653289; 
changing to 664060. This may result in incorrect timestamps in the output file.
[vost#0:0/copy @ 0000025116a7e040] Non-monotonic DTS; previous: 664060, current: 660579; 
changing to 664061. This may result in incorrect timestamps in the output file.
frame=  114 fps= 20 q=-1.0 size=    1280KiB time=00:00:07.98 bitrate=1313.3kbits/s speed= 
1.4x elapsed=0:00:05.69    
[out#0/mp4 @ 0000025117325380] video:1428KiB audio:0KiB subtitle:0KiB other streams:0KiB 
global headers:0KiB muxing overhead: 0.143864%
frame=  115 fps= 20 q=-1.0 Lsize=    1430KiB time=00:00:08.14 bitrate=1438.0kbits/s 
speed=1.39x elapsed=0:00:05.86    
